<?xml version="1.0" standalone="no"?>
<!DOCTYPE svg PUBLIC "-//W3C//DTD SVG 20010904//EN"
 "http://www.w3.org/TR/2001/REC-SVG-20010904/DTD/svg10.dtd">
<svg version="1.0" xmlns="http://www.w3.org/2000/svg"
 width="500.000000pt" height="500.000000pt" viewBox="0 0 500.000000 500.000000"
 preserveAspectRatio="xMidYMid meet">
<metadata>
Created by potrace 1.14, written by Peter Selinger 2001-2017
</metadata>
<g transform="translate(0.000000,500.000000) scale(0.100000,-0.100000)"
fill="#777777" stroke="none">
<path d="M2459 3856 c-15 -9 -46 -53 -76 -108 -163 -295 -267 -652 -288 -983
-4 -60 -8 -111 -10 -113 -1 -2 -35 22 -75 51 -181 137 -464 276 -699 343 -105
30 -130 27 -165 -19 l-21 -28 23 -87 c64 -239 214 -543 367 -741 30 -39 56
-76 58 -82 1 -6 -40 -21 -92 -35 -120 -32 -291 -98 -319 -124 -57 -54 -36
-110 58 -157 161 -81 410 -140 627 -150 l131 -6 -20 -46 c-45 -101 -68 -166
-68 -189 0 -30 51 -82 80 -82 36 0 229 86 336 149 l99 59 3 -171 c3 -204 4
-207 92 -207 38 0 62 5 70 15 8 10 11 68 11 194 l-1 180 68 -43 c142 -92 347
-181 392 -171 76 17 82 80 22 214 -23 52 -41 95 -39 96 1 1 58 5 127 8 150 8
271 27 405 66 127 38 268 96 291 122 24 26 23 82 -1 109 -37 41 -235 116 -407
154 l-28 6 47 58 c158 194 322 518 393 775 20 71 20 78 5 107 -33 63 -94 58
-322 -26 -189 -69 -469 -223 -586 -320 -16 -13 -32 -24 -36 -24 -3 0 -7 28 -9
63 -10 336 -97 663 -263 988 -78 153 -119 188 -180 155z"/>
</g>
</svg>
